<mxfile host="app.diagrams.net" modified="2024-05-03T17:47:45.729Z" agent="Mozilla/5.0 (Windows NT 10.0; Win64; x64; rv:125.0) Gecko/20100101 Firefox/125.0" etag="30Ya0OTV_VvtI0gG7KPJ" version="24.3.1" type="github">
  <diagram name="Page-1" id="OjdQ8_YbV3sazUD_UdHG">
    <mxGraphModel dx="2924" dy="2206" grid="1" gridSize="10" guides="1" tooltips="1" connect="1" arrows="1" fold="1" page="1" pageScale="1" pageWidth="850" pageHeight="1100" math="0" shadow="0">
      <root>
        <mxCell id="0" />
        <mxCell id="1" parent="0" />
        <mxCell id="uBviDvtjFSzRHuxPpynN-1" value="&lt;pre&gt;&lt;code class=&quot;!whitespace-pre hljs language-plantuml&quot;&gt;       ClientManagement&lt;/code&gt;&lt;/pre&gt;&lt;p style=&quot;margin:0px;margin-top:4px;text-align:center;&quot;&gt;&lt;/p&gt;&lt;hr size=&quot;1&quot; style=&quot;border-style:solid;&quot;&gt;&lt;pre&gt;&lt;code class=&quot;!whitespace-pre hljs language-plantuml&quot;&gt;&lt;span style=&quot;white-space: pre;&quot;&gt;&#x9;&lt;/span&gt;- clients: dict&lt;/code&gt;&lt;/pre&gt;&lt;p style=&quot;margin:0px;margin-left:4px;&quot;&gt;&lt;/p&gt;&lt;hr size=&quot;1&quot; style=&quot;border-style:solid;&quot;&gt;&lt;pre&gt;&lt;code class=&quot;!whitespace-pre hljs language-plantuml&quot;&gt;&lt;span style=&quot;white-space: pre;&quot;&gt;&#x9;&lt;/span&gt;&lt;/code&gt;&lt;br&gt;&lt;code class=&quot;!whitespace-pre hljs language-plantuml&quot;&gt;&lt;span style=&quot;white-space: pre;&quot;&gt;&#x9;&lt;/span&gt;+ load_clients(): dict&lt;br&gt;    &lt;span style=&quot;white-space: pre;&quot;&gt;&#x9;&lt;/span&gt;+ save_clients()&lt;br&gt;    &lt;span style=&quot;white-space: pre;&quot;&gt;&#x9;&lt;/span&gt;+ add_client(client)&lt;br&gt;    &lt;span style=&quot;white-space: pre;&quot;&gt;&#x9;&lt;/span&gt;+ delete_client(client_id)&lt;br&gt;    &lt;span style=&quot;white-space: pre;&quot;&gt;&#x9;&lt;/span&gt;+ modify_client(client_id)&lt;br&gt;    &lt;span style=&quot;white-space: pre;&quot;&gt;&#x9;&lt;/span&gt;+ get_client(client_id)&lt;br&gt;    &lt;span style=&quot;white-space: pre;&quot;&gt;&#x9;&lt;/span&gt;+ display_client(client_id)&lt;br&gt;    &lt;span style=&quot;white-space: pre;&quot;&gt;&#x9;&lt;/span&gt;+ display_all_clients(): str&lt;br&gt;&lt;/code&gt;&lt;code class=&quot;!whitespace-pre hljs language-plantuml&quot;&gt;    &lt;span style=&quot;white-space: pre;&quot;&gt;&#x9;&lt;/span&gt;+ get_clients(): dict&lt;br&gt;&lt;/code&gt;&lt;code class=&quot;!whitespace-pre hljs language-plantuml&quot;&gt;    &lt;span style=&quot;white-space: pre;&quot;&gt;&#x9;&lt;/span&gt;+ set_clients(clients: dict)&lt;br&gt;}&lt;/code&gt;&lt;/pre&gt;&lt;p style=&quot;margin:0px;margin-left:4px;&quot;&gt;&lt;/p&gt;" style="verticalAlign=top;align=left;overflow=fill;html=1;whiteSpace=wrap;" vertex="1" parent="1">
          <mxGeometry x="-330" y="-590" width="260" height="270" as="geometry" />
        </mxCell>
        <mxCell id="uBviDvtjFSzRHuxPpynN-2" value="&lt;pre&gt;&lt;code class=&quot;!whitespace-pre hljs language-plantuml&quot;&gt;         SupplierManagement &lt;/code&gt;&lt;/pre&gt;&lt;p style=&quot;margin:0px;margin-top:4px;text-align:center;&quot;&gt;&lt;/p&gt;&lt;hr size=&quot;1&quot; style=&quot;border-style:solid;&quot;&gt;&lt;pre&gt;&lt;code class=&quot;!whitespace-pre hljs language-plantuml&quot;&gt;    - suppliers: dict&lt;/code&gt;&lt;/pre&gt;&lt;p style=&quot;margin:0px;margin-left:4px;&quot;&gt;&lt;/p&gt;&lt;hr size=&quot;1&quot; style=&quot;border-style:solid;&quot;&gt;&lt;pre&gt;&lt;code class=&quot;!whitespace-pre hljs language-plantuml&quot;&gt; + load_suppliers(): dict&lt;br&gt;    + save_suppliers()&lt;br&gt;    + add_supplier(supplier)&lt;br&gt;    + delete_supplier(supplier_id)&lt;br&gt;    + modify_supplier(supplier_id)&lt;br&gt;    + get_supplier(supplier_id)&lt;br&gt;    + display_supplier(supplier_id)&lt;br&gt;    + display_all_suppliers(): str&lt;br&gt;    {method} + get_suppliers(): dict&lt;br&gt;    {method} + set_suppliers(suppliers: dict)&lt;br&gt;&lt;br&gt;&lt;/code&gt;&lt;/pre&gt;&lt;p style=&quot;margin:0px;margin-left:4px;&quot;&gt;&lt;/p&gt;" style="verticalAlign=top;align=left;overflow=fill;html=1;whiteSpace=wrap;" vertex="1" parent="1">
          <mxGeometry x="630" y="70" width="350" height="280" as="geometry" />
        </mxCell>
        <mxCell id="uBviDvtjFSzRHuxPpynN-3" value="&lt;pre&gt;&lt;code class=&quot;!whitespace-pre hljs language-plantuml&quot;&gt;          VenueManagement&lt;/code&gt;&lt;/pre&gt;&lt;p style=&quot;margin:0px;margin-top:4px;text-align:center;&quot;&gt;&lt;/p&gt;&lt;hr size=&quot;1&quot; style=&quot;border-style:solid;&quot;&gt;&lt;pre&gt;&lt;code class=&quot;!whitespace-pre hljs language-plantuml&quot;&gt; - venues: dict&lt;/code&gt;&lt;/pre&gt;&lt;p style=&quot;margin:0px;margin-left:4px;&quot;&gt;&lt;/p&gt;&lt;hr size=&quot;1&quot; style=&quot;border-style:solid;&quot;&gt;&lt;pre&gt;&lt;code class=&quot;!whitespace-pre hljs language-plantuml&quot;&gt; + load_venues(): dict&lt;br&gt;    + save_venues()&lt;br&gt;    + add_venue(venue)&lt;br&gt;    + delete_venue(venue_id)&lt;br&gt;    + modify_venue(venue_id)&lt;br&gt;    + get_venue(venue_id)&lt;br&gt;    + display_venue(venue_id)&lt;br&gt;    + display_all_venues(): str&lt;br&gt;    {method} + get_venues(): dict&lt;br&gt;    {method} + set_venues(venues: dict)&lt;/code&gt;&lt;/pre&gt;&lt;p style=&quot;margin:0px;margin-left:4px;&quot;&gt;&lt;/p&gt;" style="verticalAlign=top;align=left;overflow=fill;html=1;whiteSpace=wrap;" vertex="1" parent="1">
          <mxGeometry x="-330" y="-1020" width="300" height="300" as="geometry" />
        </mxCell>
        <mxCell id="uBviDvtjFSzRHuxPpynN-4" value="&lt;pre&gt;&lt;code class=&quot;!whitespace-pre hljs language-plantuml&quot;&gt;           GuestManagement&lt;/code&gt;&lt;/pre&gt;&lt;p style=&quot;margin:0px;margin-top:4px;text-align:center;&quot;&gt;&lt;/p&gt;&lt;hr size=&quot;1&quot; style=&quot;border-style:solid;&quot;&gt;&lt;pre&gt;&lt;code class=&quot;!whitespace-pre hljs language-plantuml&quot;&gt;- guests: dict&lt;/code&gt;&lt;/pre&gt;&lt;p style=&quot;margin:0px;margin-left:4px;&quot;&gt;&lt;/p&gt;&lt;hr size=&quot;1&quot; style=&quot;border-style:solid;&quot;&gt;&lt;pre&gt;&lt;code class=&quot;!whitespace-pre hljs language-plantuml&quot;&gt; + load_guests(): dict&lt;br&gt;    + save_guests()&lt;br&gt;    + add_guest(guest)&lt;br&gt;    + delete_guest(guest_id)&lt;br&gt;    + modify_guest(guest_id)&lt;br&gt;    + get_guest(guest_id)&lt;br&gt;    + display_guest(guest_id)&lt;br&gt;    + display_all_guests(): str&lt;br&gt;    + get_guests(): dict&lt;br&gt;    + set_guests(guests: dict)&lt;/code&gt;&lt;/pre&gt;&lt;p style=&quot;margin:0px;margin-left:4px;&quot;&gt;&lt;/p&gt;" style="verticalAlign=top;align=left;overflow=fill;html=1;whiteSpace=wrap;" vertex="1" parent="1">
          <mxGeometry x="-330" y="-170" width="320" height="320" as="geometry" />
        </mxCell>
        <mxCell id="uBviDvtjFSzRHuxPpynN-22" value="" style="edgeStyle=orthogonalEdgeStyle;rounded=0;orthogonalLoop=1;jettySize=auto;html=1;" edge="1" parent="1" source="uBviDvtjFSzRHuxPpynN-5" target="uBviDvtjFSzRHuxPpynN-9">
          <mxGeometry relative="1" as="geometry" />
        </mxCell>
        <mxCell id="uBviDvtjFSzRHuxPpynN-5" value="&lt;pre&gt;&lt;code class=&quot;!whitespace-pre hljs language-plantuml&quot;&gt;       &lt;/code&gt;&lt;code class=&quot;!whitespace-pre hljs language-plantuml&quot;&gt;EmployeeManagement &lt;/code&gt;&lt;/pre&gt;&lt;p style=&quot;margin:0px;margin-top:4px;text-align:center;&quot;&gt;&lt;/p&gt;&lt;hr size=&quot;1&quot; style=&quot;border-style:solid;&quot;&gt;&lt;pre&gt;&lt;code class=&quot;!whitespace-pre hljs language-plantuml&quot;&gt;&lt;span style=&quot;white-space: pre;&quot;&gt;&#x9;-&lt;/span&gt;&lt;/code&gt;&lt;code class=&quot;!whitespace-pre hljs language-plantuml&quot;&gt;employees: dict&lt;/code&gt;&lt;/pre&gt;&lt;p style=&quot;margin:0px;margin-left:4px;&quot;&gt;&lt;/p&gt;&lt;hr size=&quot;1&quot; style=&quot;border-style:solid;&quot;&gt;&lt;pre&gt;&lt;code class=&quot;!whitespace-pre hljs language-plantuml&quot;&gt;&lt;span style=&quot;white-space: pre;&quot;&gt;&#x9;&lt;/span&gt;&lt;/code&gt;&lt;code class=&quot;!whitespace-pre hljs language-plantuml&quot;&gt;&lt;br&gt;&lt;code class=&quot;!whitespace-pre hljs language-plantuml&quot;&gt;+ load_employees(): dict&lt;br&gt;    + save_employees()&lt;br&gt;    + add_employee(employee)&lt;br&gt;    + delete_employee(employee_id)&lt;br&gt;    + modify_employee(employee_id)&lt;br&gt;    + get_employee(employee_id)&lt;br&gt;    + display_employee(employee_id)&lt;br&gt;    + display_all_employees(): str&lt;br&gt;    + get_employees(): dict&lt;br&gt;    + set_employees(employees: dict)&lt;/code&gt;}&lt;/code&gt;&lt;/pre&gt;&lt;p style=&quot;margin:0px;margin-left:4px;&quot;&gt;&lt;/p&gt;" style="verticalAlign=top;align=left;overflow=fill;html=1;whiteSpace=wrap;" vertex="1" parent="1">
          <mxGeometry x="1180" y="-400" width="340" height="270" as="geometry" />
        </mxCell>
        <mxCell id="uBviDvtjFSzRHuxPpynN-8" value="&lt;pre&gt;&lt;code class=&quot;!whitespace-pre hljs language-plantuml&quot;&gt;                   Client &lt;/code&gt;&lt;/pre&gt;&lt;p style=&quot;margin:0px;margin-top:4px;text-align:center;&quot;&gt;&lt;/p&gt;&lt;hr size=&quot;1&quot; style=&quot;border-style:solid;&quot;&gt;&lt;pre&gt;&lt;code class=&quot;!whitespace-pre hljs language-plantuml&quot;&gt;&lt;span style=&quot;white-space: pre;&quot;&gt;&#x9;&lt;/span&gt;- client_id: int&lt;br&gt;    &lt;span style=&quot;white-space: pre;&quot;&gt;&#x9;&lt;/span&gt;- name: str&lt;br&gt;    &lt;span style=&quot;white-space: pre;&quot;&gt;&#x9;&lt;/span&gt;- address: str&lt;br&gt;    &lt;span style=&quot;white-space: pre;&quot;&gt;&#x9;&lt;/span&gt;- contact_details: str&lt;br&gt;    &lt;span style=&quot;white-space: pre;&quot;&gt;&#x9;&lt;/span&gt;- budget: float&lt;/code&gt;&lt;/pre&gt;&lt;p style=&quot;margin:0px;margin-left:4px;&quot;&gt;&lt;/p&gt;&lt;hr size=&quot;1&quot; style=&quot;border-style:solid;&quot;&gt;&lt;pre&gt;&lt;code class=&quot;!whitespace-pre hljs language-plantuml&quot;&gt;     + get_client_id(): int&lt;br&gt;     + set_client_id(client_id: int)&lt;br&gt;     + get_name(): str&lt;br&gt;     + set_name(name: str)&lt;br&gt;     + get_address(): str&lt;br&gt;     + set_address(address: str)&lt;br&gt;     + get_contact_details(): str&lt;br&gt;     + set_contact_details(contact_details: str)&lt;br&gt;     + get_budget(): float&lt;br&gt;     + set_budget(budget: float)&lt;br&gt;}&lt;/code&gt;&lt;/pre&gt;&lt;p style=&quot;margin:0px;margin-left:4px;&quot;&gt;&lt;br&gt;&lt;br&gt;&lt;span style=&quot;white-space: pre;&quot;&gt;&#x9;&lt;/span&gt;&lt;br&gt;&lt;/p&gt;" style="verticalAlign=top;align=left;overflow=fill;html=1;whiteSpace=wrap;" vertex="1" parent="1">
          <mxGeometry x="60" y="-600" width="420" height="310" as="geometry" />
        </mxCell>
        <mxCell id="uBviDvtjFSzRHuxPpynN-9" value="&lt;pre&gt;&lt;code class=&quot;!whitespace-pre hljs language-plantuml&quot;&gt;       &lt;/code&gt;&lt;code class=&quot;!whitespace-pre hljs language-plantuml&quot;&gt;Employee&lt;/code&gt;&lt;/pre&gt;&lt;p style=&quot;margin:0px;margin-top:4px;text-align:center;&quot;&gt;&lt;/p&gt;&lt;hr size=&quot;1&quot; style=&quot;border-style:solid;&quot;&gt;&lt;pre&gt;&lt;code class=&quot;!whitespace-pre hljs language-python&quot;&gt;    - employee_id: &lt;span class=&quot;hljs-built_in&quot;&gt;int&lt;/span&gt;&lt;br&gt;    - name: &lt;span class=&quot;hljs-built_in&quot;&gt;str&lt;/span&gt;&lt;br&gt;    - department: &lt;span class=&quot;hljs-built_in&quot;&gt;str&lt;/span&gt;&lt;br&gt;    - job_title: &lt;span class=&quot;hljs-built_in&quot;&gt;str&lt;/span&gt;&lt;br&gt;    - basic_salary: &lt;span class=&quot;hljs-built_in&quot;&gt;float&lt;/span&gt;&lt;br&gt;    - age: &lt;span class=&quot;hljs-built_in&quot;&gt;int&lt;/span&gt;&lt;br&gt;    - date_of_birth: &lt;span class=&quot;hljs-built_in&quot;&gt;str&lt;/span&gt;&lt;br&gt;    - passport_details: &lt;span class=&quot;hljs-built_in&quot;&gt;str&lt;/span&gt;&lt;br&gt;    - manager_id: &lt;span class=&quot;hljs-built_in&quot;&gt;int&lt;/span&gt;&lt;/code&gt;&lt;/pre&gt;&lt;p style=&quot;margin:0px;margin-left:4px;&quot;&gt;&lt;/p&gt;&lt;hr size=&quot;1&quot; style=&quot;border-style:solid;&quot;&gt;&lt;pre&gt;&lt;code class=&quot;!whitespace-pre hljs language-python&quot;&gt;    + get_employee_id(): &lt;span class=&quot;hljs-built_in&quot;&gt;int&lt;/span&gt;&lt;br&gt;    + set_employee_id(employee_id: &lt;span class=&quot;hljs-built_in&quot;&gt;int&lt;/span&gt;)&lt;br&gt;    + get_name(): &lt;span class=&quot;hljs-built_in&quot;&gt;str&lt;/span&gt;&lt;br&gt;    + set_name(name: &lt;span class=&quot;hljs-built_in&quot;&gt;str&lt;/span&gt;)&lt;br&gt;    + get_department(): &lt;span class=&quot;hljs-built_in&quot;&gt;str&lt;/span&gt;&lt;br&gt;    + set_department(department: &lt;span class=&quot;hljs-built_in&quot;&gt;str&lt;/span&gt;)&lt;br&gt;    + get_job_title(): &lt;span class=&quot;hljs-built_in&quot;&gt;str&lt;/span&gt;&lt;br&gt;    + set_job_title(job_title: &lt;span class=&quot;hljs-built_in&quot;&gt;str&lt;/span&gt;)&lt;br&gt;    + get_basic_salary(): &lt;span class=&quot;hljs-built_in&quot;&gt;float&lt;/span&gt;&lt;br&gt;    + set_basic_salary(basic_salary: &lt;span class=&quot;hljs-built_in&quot;&gt;float&lt;/span&gt;)&lt;br&gt;    + get_age(): &lt;span class=&quot;hljs-built_in&quot;&gt;int&lt;/span&gt;&lt;br&gt;    + set_age(age: &lt;span class=&quot;hljs-built_in&quot;&gt;int&lt;/span&gt;)&lt;br&gt;    + get_date_of_birth(): &lt;span class=&quot;hljs-built_in&quot;&gt;str&lt;/span&gt;&lt;br&gt;    + set_date_of_birth(date_of_birth: &lt;span class=&quot;hljs-built_in&quot;&gt;str&lt;/span&gt;)&lt;br&gt;    + get_passport_details(): &lt;span class=&quot;hljs-built_in&quot;&gt;str&lt;/span&gt;&lt;br&gt;    + set_passport_details(passport_details: &lt;span class=&quot;hljs-built_in&quot;&gt;str&lt;/span&gt;)&lt;br&gt;    + get_manager_id(): &lt;span class=&quot;hljs-built_in&quot;&gt;int&lt;/span&gt;&lt;br&gt;    + set_manager_id(manager_id: &lt;span class=&quot;hljs-built_in&quot;&gt;int&lt;/span&gt;)&lt;/code&gt;&lt;/pre&gt;&lt;p style=&quot;margin:0px;margin-left:4px;&quot;&gt;&lt;/p&gt;" style="verticalAlign=top;align=left;overflow=fill;html=1;whiteSpace=wrap;" vertex="1" parent="1">
          <mxGeometry x="1180" y="-1080" width="340" height="490" as="geometry" />
        </mxCell>
        <mxCell id="uBviDvtjFSzRHuxPpynN-10" value="&lt;pre&gt;&lt;code class=&quot;!whitespace-pre hljs language-plantuml&quot;&gt;           Guest&lt;/code&gt;&lt;/pre&gt;&lt;p style=&quot;margin:0px;margin-top:4px;text-align:center;&quot;&gt;&lt;/p&gt;&lt;hr size=&quot;1&quot; style=&quot;border-style:solid;&quot;&gt;&lt;pre&gt;&lt;code class=&quot;!whitespace-pre hljs language-plantuml&quot;&gt; &lt;span style=&quot;white-space: pre;&quot;&gt;&#x9;&lt;/span&gt;- guest_id: int&lt;br/&gt;    &lt;span style=&quot;white-space: pre;&quot;&gt;&#x9;&lt;/span&gt;- name: str&lt;br/&gt;   &lt;span style=&quot;white-space: pre;&quot;&gt;&#x9;&lt;/span&gt;- address: str&lt;br/&gt;   &lt;span style=&quot;white-space: pre;&quot;&gt;&#x9;&lt;/span&gt;- contact_details: str&lt;/code&gt;&lt;/pre&gt;&lt;p style=&quot;margin:0px;margin-left:4px;&quot;&gt;&lt;/p&gt;&lt;hr size=&quot;1&quot; style=&quot;border-style:solid;&quot;&gt;&lt;pre&gt;&lt;code class=&quot;!whitespace-pre hljs language-plantuml&quot;&gt; &lt;/code&gt;&lt;code class=&quot;!whitespace-pre hljs language-python&quot;&gt;   + get_guest_id(): &lt;span class=&quot;hljs-built_in&quot;&gt;int&lt;/span&gt;&lt;br/&gt;    + set_guest_id(guest_id: &lt;span class=&quot;hljs-built_in&quot;&gt;int&lt;/span&gt;)&lt;br/&gt;    + get_name(): &lt;span class=&quot;hljs-built_in&quot;&gt;str&lt;/span&gt;&lt;br/&gt;    + set_name(name: &lt;span class=&quot;hljs-built_in&quot;&gt;str&lt;/span&gt;)&lt;br/&gt;    + get_address(): &lt;span class=&quot;hljs-built_in&quot;&gt;str&lt;/span&gt;&lt;br/&gt;    + set_address(address: &lt;span class=&quot;hljs-built_in&quot;&gt;str&lt;/span&gt;)&lt;br/&gt;    + get_contact_details(): &lt;span class=&quot;hljs-built_in&quot;&gt;str&lt;/span&gt;&lt;br/&gt;    + set_contact_details(contact_details: &lt;span class=&quot;hljs-built_in&quot;&gt;str&lt;/span&gt;)&lt;/code&gt;&lt;/pre&gt;&lt;p style=&quot;margin:0px;margin-left:4px;&quot;&gt;&lt;/p&gt;" style="verticalAlign=top;align=left;overflow=fill;html=1;whiteSpace=wrap;" vertex="1" parent="1">
          <mxGeometry x="140" y="-240" width="340" height="450" as="geometry" />
        </mxCell>
        <mxCell id="uBviDvtjFSzRHuxPpynN-12" value="&lt;pre&gt;&lt;code class=&quot;!whitespace-pre hljs language-plantuml&quot;&gt;          Venue&lt;/code&gt;&lt;/pre&gt;&lt;p style=&quot;margin:0px;margin-top:4px;text-align:center;&quot;&gt;&lt;/p&gt;&lt;hr size=&quot;1&quot; style=&quot;border-style:solid;&quot;&gt;&lt;pre&gt;&lt;code class=&quot;!whitespace-pre hljs language-plantuml&quot;&gt;    - venue_id: int&lt;br&gt;    - name: str&lt;br&gt;    - address: str&lt;br&gt;    - contact: str&lt;br&gt;    - min_guests: int&lt;br&gt;    - max_guests: int&lt;/code&gt;&lt;/pre&gt;&lt;p style=&quot;margin:0px;margin-left:4px;&quot;&gt;&lt;/p&gt;&lt;hr size=&quot;1&quot; style=&quot;border-style:solid;&quot;&gt;&lt;code&gt;&lt;span style=&quot;white-space: pre;&quot;&gt;&#x9;+&lt;/span&gt;get_venue_id()&lt;/code&gt;: int&lt;br&gt;&lt;code&gt;&lt;span style=&quot;white-space: pre;&quot;&gt;&#x9;&lt;/span&gt;&lt;/code&gt;&lt;code&gt;&lt;span style=&quot;white-space: pre;&quot;&gt;+&lt;/span&gt;&lt;/code&gt;&lt;code&gt;&lt;span style=&quot;white-space: pre;&quot;&gt;&lt;/span&gt;set_venue_id(venue_id: int)&lt;/code&gt;&lt;br&gt;&lt;code&gt;&lt;span style=&quot;white-space: pre;&quot;&gt;&#x9;&lt;/span&gt;&lt;/code&gt;&lt;code&gt;&lt;span style=&quot;white-space: pre;&quot;&gt;+&lt;/span&gt;&lt;/code&gt;&lt;code&gt;&lt;span style=&quot;white-space: pre;&quot;&gt;&lt;/span&gt;get_name()&lt;/code&gt;: str&lt;br&gt;&lt;code&gt;&lt;span style=&quot;white-space: pre;&quot;&gt;&#x9;&lt;/span&gt;&lt;/code&gt;&lt;code&gt;&lt;span style=&quot;white-space: pre;&quot;&gt;+&lt;/span&gt;&lt;/code&gt;&lt;code&gt;&lt;span style=&quot;white-space: pre;&quot;&gt;&lt;/span&gt;set_name(name: str)&lt;/code&gt;&lt;br&gt;&lt;code&gt;&lt;span style=&quot;white-space: pre;&quot;&gt;&#x9;&lt;/span&gt;&lt;/code&gt;&lt;code&gt;&lt;span style=&quot;white-space: pre;&quot;&gt;+&lt;/span&gt;&lt;/code&gt;&lt;code&gt;&lt;span style=&quot;white-space: pre;&quot;&gt;&lt;/span&gt;get_address()&lt;/code&gt;: str&lt;br&gt;&lt;code&gt;&lt;span style=&quot;white-space: pre;&quot;&gt;&#x9;&lt;/span&gt;&lt;/code&gt;&lt;code&gt;&lt;span style=&quot;white-space: pre;&quot;&gt;+&lt;/span&gt;&lt;/code&gt;&lt;code&gt;&lt;span style=&quot;white-space: pre;&quot;&gt;&lt;/span&gt;set_address(address: str)&lt;/code&gt;&lt;br&gt;&lt;code&gt;&lt;span style=&quot;white-space: pre;&quot;&gt;&#x9;&lt;/span&gt;&lt;/code&gt;&lt;code&gt;&lt;span style=&quot;white-space: pre;&quot;&gt;+&lt;/span&gt;&lt;/code&gt;&lt;code&gt;&lt;span style=&quot;white-space: pre;&quot;&gt;&lt;/span&gt;get_contact()&lt;/code&gt;: str&lt;br&gt;&lt;code&gt;&lt;span style=&quot;white-space: pre;&quot;&gt;&#x9;&lt;/span&gt;&lt;/code&gt;&lt;code&gt;&lt;span style=&quot;white-space: pre;&quot;&gt;+&lt;/span&gt;&lt;/code&gt;&lt;code&gt;&lt;span style=&quot;white-space: pre;&quot;&gt;&lt;/span&gt;set_contact(contact: str)&lt;/code&gt;&lt;br&gt;&lt;code&gt;&lt;span style=&quot;white-space: pre;&quot;&gt;&#x9;&lt;/span&gt;&lt;/code&gt;&lt;code&gt;&lt;span style=&quot;white-space: pre;&quot;&gt;+&lt;/span&gt;&lt;/code&gt;&lt;code&gt;&lt;span style=&quot;white-space: pre;&quot;&gt;&lt;/span&gt;get_min_guests()&lt;/code&gt;: int&lt;br&gt;&lt;code&gt;&lt;span style=&quot;white-space: pre;&quot;&gt;&#x9;&lt;/span&gt;&lt;/code&gt;&lt;code&gt;&lt;span style=&quot;white-space: pre;&quot;&gt;+&lt;/span&gt;&lt;/code&gt;&lt;code&gt;&lt;span style=&quot;white-space: pre;&quot;&gt;&lt;/span&gt;set_min_guests(min_guests: int)&lt;/code&gt;&lt;br&gt;&lt;code&gt;&lt;span style=&quot;white-space: pre;&quot;&gt;&#x9;&lt;/span&gt;&lt;/code&gt;&lt;code&gt;&lt;span style=&quot;white-space: pre;&quot;&gt;+&lt;/span&gt;&lt;/code&gt;&lt;code&gt;&lt;span style=&quot;white-space: pre;&quot;&gt;&lt;/span&gt;get_max_guests()&lt;/code&gt;: int&lt;br&gt;&lt;code&gt;&lt;span style=&quot;white-space: pre;&quot;&gt;&#x9;&lt;/span&gt;&lt;/code&gt;&lt;code&gt;&lt;span style=&quot;white-space: pre;&quot;&gt;+&lt;/span&gt;&lt;/code&gt;&lt;code&gt;set_max_guests(max_guests: int)&lt;/code&gt;&lt;p style=&quot;margin:0px;margin-left:4px;&quot;&gt;&lt;/p&gt;" style="verticalAlign=top;align=left;overflow=fill;html=1;whiteSpace=wrap;" vertex="1" parent="1">
          <mxGeometry x="200" y="-1020" width="320" height="360" as="geometry" />
        </mxCell>
        <mxCell id="uBviDvtjFSzRHuxPpynN-44" style="edgeStyle=orthogonalEdgeStyle;rounded=0;orthogonalLoop=1;jettySize=auto;html=1;entryX=1;entryY=0.25;entryDx=0;entryDy=0;" edge="1" parent="1" source="uBviDvtjFSzRHuxPpynN-13" target="uBviDvtjFSzRHuxPpynN-2">
          <mxGeometry relative="1" as="geometry" />
        </mxCell>
        <mxCell id="uBviDvtjFSzRHuxPpynN-13" value="&lt;pre&gt;&lt;code class=&quot;!whitespace-pre hljs language-plantuml&quot;&gt;         Supplier&lt;/code&gt;&lt;/pre&gt;&lt;p style=&quot;margin:0px;margin-top:4px;text-align:center;&quot;&gt;&lt;/p&gt;&lt;hr size=&quot;1&quot; style=&quot;border-style:solid;&quot;&gt;&lt;pre&gt;&lt;code class=&quot;!whitespace-pre hljs language-plantuml&quot;&gt;    &lt;/code&gt;&lt;code class=&quot;!whitespace-pre hljs language-plantuml&quot;&gt;- supplier_id: int&lt;br&gt;    - name: str&lt;br&gt;    - address: str&lt;br&gt;    - contact_details: str&lt;br&gt;    - service_provided: str&lt;br&gt;    - menu: str&lt;br&gt;    - min_order_quantity: int&lt;br&gt;    - max_order_quantity: int&lt;/code&gt;&lt;/pre&gt;&lt;p style=&quot;margin:0px;margin-left:4px;&quot;&gt;&lt;/p&gt;&lt;hr size=&quot;1&quot; style=&quot;border-style:solid;&quot;&gt;&lt;pre&gt;&lt;code class=&quot;!whitespace-pre hljs language-plantuml&quot;&gt; &lt;/code&gt;&lt;br&gt;&lt;code class=&quot;!whitespace-pre hljs language-python&quot;&gt; + get_supplier_id(): &lt;span class=&quot;hljs-built_in&quot;&gt;int&lt;/span&gt;&lt;br/&gt;    + set_supplier_id(supplier_id: &lt;span class=&quot;hljs-built_in&quot;&gt;int&lt;/span&gt;)&lt;br/&gt;    + get_name(): &lt;span class=&quot;hljs-built_in&quot;&gt;str&lt;/span&gt;&lt;br/&gt;    + set_name(name: &lt;span class=&quot;hljs-built_in&quot;&gt;str&lt;/span&gt;)&lt;br/&gt;    + get_address(): &lt;span class=&quot;hljs-built_in&quot;&gt;str&lt;/span&gt;&lt;br/&gt;    + set_address(address: &lt;span class=&quot;hljs-built_in&quot;&gt;str&lt;/span&gt;)&lt;br/&gt;    + get_contact_details(): &lt;span class=&quot;hljs-built_in&quot;&gt;str&lt;/span&gt;&lt;br/&gt;    + set_contact_details(contact_details: &lt;span class=&quot;hljs-built_in&quot;&gt;str&lt;/span&gt;)&lt;br/&gt;    + get_service_provided(): &lt;span class=&quot;hljs-built_in&quot;&gt;str&lt;/span&gt;&lt;br/&gt;    + set_service_provided(service_provided: &lt;span class=&quot;hljs-built_in&quot;&gt;str&lt;/span&gt;)&lt;br/&gt;    + get_menu(): &lt;span class=&quot;hljs-built_in&quot;&gt;str&lt;/span&gt;&lt;br/&gt;    + set_menu(menu: &lt;span class=&quot;hljs-built_in&quot;&gt;str&lt;/span&gt;)&lt;br/&gt;    + get_min_order_quantity(): &lt;span class=&quot;hljs-built_in&quot;&gt;int&lt;/span&gt;&lt;br/&gt;    + set_min_order_quantity(min_order_quantity: &lt;span class=&quot;hljs-built_in&quot;&gt;int&lt;/span&gt;)&lt;br/&gt;    + get_max_order_quantity(): &lt;span class=&quot;hljs-built_in&quot;&gt;int&lt;/span&gt;&lt;br/&gt;    + set_max_order_quantity(max_order_quantity: &lt;span class=&quot;hljs-built_in&quot;&gt;int&lt;/span&gt;)&lt;/code&gt;&lt;code class=&quot;!whitespace-pre hljs language-plantuml&quot;&gt;&lt;/code&gt;&lt;/pre&gt;&lt;p style=&quot;margin:0px;margin-left:4px;&quot;&gt;&lt;/p&gt;" style="verticalAlign=top;align=left;overflow=fill;html=1;whiteSpace=wrap;" vertex="1" parent="1">
          <mxGeometry x="1180" y="-90" width="390" height="470" as="geometry" />
        </mxCell>
        <mxCell id="uBviDvtjFSzRHuxPpynN-38" value="" style="edgeStyle=orthogonalEdgeStyle;rounded=0;orthogonalLoop=1;jettySize=auto;html=1;" edge="1" parent="1" source="uBviDvtjFSzRHuxPpynN-14" target="uBviDvtjFSzRHuxPpynN-15">
          <mxGeometry relative="1" as="geometry" />
        </mxCell>
        <mxCell id="uBviDvtjFSzRHuxPpynN-14" value="&lt;pre&gt;&lt;code class=&quot;!whitespace-pre hljs language-plaintext&quot;&gt;Event Management &lt;/code&gt;&lt;/pre&gt;&lt;p style=&quot;margin:0px;margin-top:4px;text-align:center;&quot;&gt;&lt;/p&gt;&lt;hr size=&quot;1&quot; style=&quot;border-style:solid;&quot;&gt;&lt;pre&gt;&lt;code class=&quot;!whitespace-pre hljs language-plaintext&quot;&gt;- events: dict&lt;/code&gt;&lt;/pre&gt;&lt;p style=&quot;margin:0px;margin-left:4px;&quot;&gt;&lt;/p&gt;&lt;hr size=&quot;1&quot; style=&quot;border-style:solid;&quot;&gt;&lt;pre&gt;&lt;code class=&quot;!whitespace-pre hljs language-plaintext&quot;&gt;&lt;span style=&quot;white-space: pre;&quot;&gt;&#x9;&lt;/span&gt;+ load_events(): dict &lt;br&gt;&lt;/code&gt;&lt;code class=&quot;!whitespace-pre hljs language-plaintext&quot;&gt;&lt;span style=&quot;white-space: pre;&quot;&gt;&#x9;&lt;/span&gt;+ save_events() &lt;br&gt;&lt;/code&gt;&lt;code class=&quot;!whitespace-pre hljs language-plaintext&quot;&gt;&lt;span style=&quot;white-space: pre;&quot;&gt;&#x9;&lt;/span&gt;+ add_event(event) &lt;br&gt;&lt;/code&gt;&lt;code class=&quot;!whitespace-pre hljs language-plaintext&quot;&gt;&lt;span style=&quot;white-space: pre;&quot;&gt;&#x9;&lt;/span&gt;+ delete_event(event_id)&lt;br&gt;&lt;/code&gt;&lt;code class=&quot;!whitespace-pre hljs language-plaintext&quot;&gt;&lt;span style=&quot;white-space: pre;&quot;&gt;&#x9;&lt;/span&gt;+ modify_event(event_id)&lt;br&gt;&lt;/code&gt;&lt;code class=&quot;!whitespace-pre hljs language-plaintext&quot;&gt;&lt;span style=&quot;white-space: pre;&quot;&gt;&#x9;&lt;/span&gt;+ get_event(event_id) &lt;br&gt;&lt;/code&gt;&lt;code class=&quot;!whitespace-pre hljs language-plaintext&quot;&gt;&lt;span style=&quot;white-space: pre;&quot;&gt;&#x9;&lt;/span&gt;+ display_event(event_id)&lt;br&gt;&lt;/code&gt;&lt;code class=&quot;!whitespace-pre hljs language-plaintext&quot;&gt;&lt;span style=&quot;white-space: pre;&quot;&gt;&#x9;&lt;/span&gt;+ display_all_events(): str  &lt;/code&gt;&lt;code class=&quot;!whitespace-pre hljs language-plaintext&quot;&gt;&lt;br&gt;&lt;/code&gt;&lt;code class=&quot;!whitespace-pre hljs language-plaintext&quot;&gt;&lt;br&gt;&lt;/code&gt;&lt;/pre&gt;&lt;p style=&quot;margin:0px;margin-left:4px;&quot;&gt;&lt;/p&gt;" style="verticalAlign=top;align=left;overflow=fill;html=1;whiteSpace=wrap;" vertex="1" parent="1">
          <mxGeometry x="700" y="-1080" width="310" height="270" as="geometry" />
        </mxCell>
        <mxCell id="uBviDvtjFSzRHuxPpynN-15" value="&lt;p style=&quot;margin:0px;margin-top:4px;text-align:center;&quot;&gt;&lt;b&gt;Event&lt;/b&gt;&lt;/p&gt;&lt;hr size=&quot;1&quot; style=&quot;border-style:solid;&quot;&gt;&lt;pre&gt;&lt;code class=&quot;!whitespace-pre hljs language-plaintext&quot;&gt;&lt;span style=&quot;white-space: pre;&quot;&gt;&#x9;&lt;/span&gt;- event_id: str&lt;br&gt;&lt;span style=&quot;white-space: pre;&quot;&gt;&#x9;&lt;/span&gt;- event_type: str&lt;br&gt;&lt;span style=&quot;white-space: pre;&quot;&gt;&#x9;&lt;/span&gt;- theme: str&lt;br&gt;&lt;span style=&quot;white-space: pre;&quot;&gt;&#x9;&lt;/span&gt;- date: str&lt;br&gt;&lt;span style=&quot;white-space: pre;&quot;&gt;&#x9;&lt;/span&gt;- time: str&lt;br&gt;&lt;span style=&quot;white-space: pre;&quot;&gt;&#x9;&lt;/span&gt;- duration: str&lt;br&gt;&lt;span style=&quot;white-space: pre;&quot;&gt;&#x9;&lt;/span&gt;- venue_address: str&lt;br&gt;&lt;span style=&quot;white-space: pre;&quot;&gt;&#x9;&lt;/span&gt;- client_id: str&lt;br&gt;&lt;span style=&quot;white-space: pre;&quot;&gt;&#x9;&lt;/span&gt;- guest_list: list[str]&lt;br&gt;&lt;span style=&quot;white-space: pre;&quot;&gt;&#x9;&lt;/span&gt;- catering_company: str&lt;br&gt;&lt;span style=&quot;white-space: pre;&quot;&gt;&#x9;&lt;/span&gt;- cleaning_company: str&lt;br&gt;&lt;span style=&quot;white-space: pre;&quot;&gt;&#x9;&lt;/span&gt;- decorations_company: str&lt;br&gt;&lt;span style=&quot;white-space: pre;&quot;&gt;&#x9;&lt;/span&gt;- entertainment_company: str&lt;br&gt;&lt;span style=&quot;white-space: pre;&quot;&gt;&#x9;&lt;/span&gt;- furniture_supply_company: str&lt;br&gt;&lt;span style=&quot;white-space: pre;&quot;&gt;&#x9;&lt;/span&gt;- invoice: str&lt;/code&gt;&lt;/pre&gt;&lt;p style=&quot;margin:0px;margin-left:4px;&quot;&gt;&lt;/p&gt;&lt;hr size=&quot;1&quot; style=&quot;border-style:solid;&quot;&gt;&lt;blockquote&gt;&lt;pre&gt;&lt;code class=&quot;!whitespace-pre hljs language-plaintext&quot;&gt;+ set_event_id(event_id)&lt;br/&gt;+ get_event_id(): str&lt;br/&gt;+ set_event_type(event_type)&lt;br/&gt;+ get_event_type(): str&lt;br/&gt;+ set_theme(theme)&lt;br/&gt;+ get_theme(): str&lt;br/&gt;+ set_date(date)&lt;br/&gt;+ get_date(): str&lt;br/&gt;+ set_time(time)&lt;br/&gt;+ get_time(): str&lt;br/&gt;+ set_duration(duration)&lt;br/&gt;+ get_duration(): str&lt;br/&gt;+ set_venue_address(venue_address)&lt;br/&gt;+ get_venue_address(): str&lt;br/&gt;+ set_client_id(client_id)&lt;br/&gt;+ get_client_id(): str&lt;br/&gt;+ set_guest_list(guest_list)&lt;br/&gt;+ get_guest_list(): list[str]&lt;br/&gt;+ set_catering_company(catering_company)&lt;br/&gt;+ get_catering_company(): str&lt;br/&gt;+ set_cleaning_company(cleaning_company)&lt;br/&gt;+ get_cleaning_company(): str&lt;br/&gt;+ set_decorations_company(decorations_company)&lt;br/&gt;+ get_decorations_company(): str&lt;br/&gt;+ set_entertainment_company(entertainment_company)&lt;br/&gt;+ get_entertainment_company(): str&lt;br/&gt;+ set_furniture_supply_company(furniture_supply_company)&lt;br/&gt;+ get_furniture_supply_company(): str&lt;br/&gt;+ set_invoice(invoice)&lt;br/&gt;+ get_invoice(): str&lt;/code&gt;&lt;/pre&gt;&lt;p style=&quot;margin:0px;margin-left:4px;&quot;&gt;&lt;/p&gt;&lt;/blockquote&gt;" style="verticalAlign=top;align=left;overflow=fill;html=1;whiteSpace=wrap;" vertex="1" parent="1">
          <mxGeometry x="640" y="-730" width="460" height="740" as="geometry" />
        </mxCell>
        <mxCell id="uBviDvtjFSzRHuxPpynN-16" value="" style="endArrow=block;endFill=1;html=1;edgeStyle=orthogonalEdgeStyle;align=left;verticalAlign=top;rounded=0;entryX=0;entryY=0.5;entryDx=0;entryDy=0;" edge="1" parent="1" target="uBviDvtjFSzRHuxPpynN-8">
          <mxGeometry x="-1" relative="1" as="geometry">
            <mxPoint x="-70" y="-445.59000000000003" as="sourcePoint" />
            <mxPoint x="90" y="-445.59000000000003" as="targetPoint" />
          </mxGeometry>
        </mxCell>
        <mxCell id="uBviDvtjFSzRHuxPpynN-17" value="1" style="edgeLabel;resizable=0;html=1;align=left;verticalAlign=bottom;" connectable="0" vertex="1" parent="uBviDvtjFSzRHuxPpynN-16">
          <mxGeometry x="-1" relative="1" as="geometry">
            <mxPoint x="6" as="offset" />
          </mxGeometry>
        </mxCell>
        <mxCell id="uBviDvtjFSzRHuxPpynN-18" value="manages" style="text;html=1;align=center;verticalAlign=middle;resizable=0;points=[];autosize=1;strokeColor=none;fillColor=none;" vertex="1" parent="1">
          <mxGeometry x="-50" y="-470" width="80" height="30" as="geometry" />
        </mxCell>
        <mxCell id="uBviDvtjFSzRHuxPpynN-19" value="0.....n" style="text;html=1;align=center;verticalAlign=middle;resizable=0;points=[];autosize=1;strokeColor=none;fillColor=none;" vertex="1" parent="1">
          <mxGeometry x="10" y="-470" width="50" height="30" as="geometry" />
        </mxCell>
        <mxCell id="uBviDvtjFSzRHuxPpynN-23" value="0...n" style="text;html=1;align=center;verticalAlign=middle;resizable=0;points=[];autosize=1;strokeColor=none;fillColor=none;" vertex="1" parent="1">
          <mxGeometry x="1310" y="-590" width="50" height="30" as="geometry" />
        </mxCell>
        <mxCell id="uBviDvtjFSzRHuxPpynN-24" value="1" style="text;html=1;align=center;verticalAlign=middle;resizable=0;points=[];autosize=1;strokeColor=none;fillColor=none;" vertex="1" parent="1">
          <mxGeometry x="1325" y="-432" width="30" height="30" as="geometry" />
        </mxCell>
        <mxCell id="uBviDvtjFSzRHuxPpynN-25" value="manages" style="text;whiteSpace=wrap;html=1;rotation=-90;" vertex="1" parent="1">
          <mxGeometry x="1295" y="-530" width="90" height="40" as="geometry" />
        </mxCell>
        <mxCell id="uBviDvtjFSzRHuxPpynN-30" value="" style="endArrow=block;endFill=1;html=1;edgeStyle=orthogonalEdgeStyle;align=left;verticalAlign=top;rounded=0;entryX=0;entryY=0.5;entryDx=0;entryDy=0;" edge="1" parent="1" target="uBviDvtjFSzRHuxPpynN-10">
          <mxGeometry x="-1" relative="1" as="geometry">
            <mxPoint x="-10" y="-15.590000000000032" as="sourcePoint" />
            <mxPoint x="40" y="-30" as="targetPoint" />
          </mxGeometry>
        </mxCell>
        <mxCell id="uBviDvtjFSzRHuxPpynN-31" value="1" style="edgeLabel;resizable=0;html=1;align=left;verticalAlign=bottom;" connectable="0" vertex="1" parent="uBviDvtjFSzRHuxPpynN-30">
          <mxGeometry x="-1" relative="1" as="geometry" />
        </mxCell>
        <mxCell id="uBviDvtjFSzRHuxPpynN-32" value="0.....n" style="text;html=1;align=center;verticalAlign=middle;resizable=0;points=[];autosize=1;strokeColor=none;fillColor=none;" vertex="1" parent="1">
          <mxGeometry x="80" y="-40" width="50" height="30" as="geometry" />
        </mxCell>
        <mxCell id="uBviDvtjFSzRHuxPpynN-33" value="manages" style="text;html=1;align=center;verticalAlign=middle;resizable=0;points=[];autosize=1;strokeColor=none;fillColor=none;" vertex="1" parent="1">
          <mxGeometry x="20" y="-50" width="80" height="30" as="geometry" />
        </mxCell>
        <mxCell id="uBviDvtjFSzRHuxPpynN-34" value="" style="endArrow=block;endFill=1;html=1;edgeStyle=orthogonalEdgeStyle;align=left;verticalAlign=top;rounded=0;entryX=-0.013;entryY=0.422;entryDx=0;entryDy=0;entryPerimeter=0;" edge="1" parent="1" target="uBviDvtjFSzRHuxPpynN-12">
          <mxGeometry x="-1" relative="1" as="geometry">
            <mxPoint x="-30" y="-870" as="sourcePoint" />
            <mxPoint x="190" y="-869" as="targetPoint" />
          </mxGeometry>
        </mxCell>
        <mxCell id="uBviDvtjFSzRHuxPpynN-35" value="1" style="edgeLabel;resizable=0;html=1;align=left;verticalAlign=bottom;" connectable="0" vertex="1" parent="uBviDvtjFSzRHuxPpynN-34">
          <mxGeometry x="-1" relative="1" as="geometry" />
        </mxCell>
        <mxCell id="uBviDvtjFSzRHuxPpynN-36" value="manages" style="text;html=1;align=center;verticalAlign=middle;resizable=0;points=[];autosize=1;strokeColor=none;fillColor=none;" vertex="1" parent="1">
          <mxGeometry x="30" y="-910" width="80" height="30" as="geometry" />
        </mxCell>
        <mxCell id="uBviDvtjFSzRHuxPpynN-37" value="0.....n" style="text;whiteSpace=wrap;html=1;" vertex="1" parent="1">
          <mxGeometry x="150" y="-890" width="60" height="40" as="geometry" />
        </mxCell>
        <mxCell id="uBviDvtjFSzRHuxPpynN-39" value="manages" style="text;whiteSpace=wrap;html=1;rotation=-90;" vertex="1" parent="1">
          <mxGeometry x="800" y="-810" width="90" height="40" as="geometry" />
        </mxCell>
        <mxCell id="uBviDvtjFSzRHuxPpynN-41" value="1" style="text;whiteSpace=wrap;html=1;" vertex="1" parent="1">
          <mxGeometry x="860" y="-810" width="40" height="40" as="geometry" />
        </mxCell>
        <mxCell id="uBviDvtjFSzRHuxPpynN-45" value="manages" style="text;html=1;align=center;verticalAlign=middle;resizable=0;points=[];autosize=1;strokeColor=none;fillColor=none;" vertex="1" parent="1">
          <mxGeometry x="1040" y="110" width="80" height="30" as="geometry" />
        </mxCell>
        <mxCell id="uBviDvtjFSzRHuxPpynN-46" value="0.....n" style="text;whiteSpace=wrap;html=1;" vertex="1" parent="1">
          <mxGeometry x="980" y="120" width="60" height="40" as="geometry" />
        </mxCell>
        <mxCell id="uBviDvtjFSzRHuxPpynN-47" value="1" style="edgeLabel;resizable=0;html=1;align=left;verticalAlign=bottom;" connectable="0" vertex="1" parent="1">
          <mxGeometry x="1120" y="99.99999999999989" as="geometry">
            <mxPoint x="25" y="40" as="offset" />
          </mxGeometry>
        </mxCell>
        <mxCell id="uBviDvtjFSzRHuxPpynN-48" style="edgeStyle=orthogonalEdgeStyle;rounded=0;orthogonalLoop=1;jettySize=auto;html=1;exitX=1;exitY=0.5;exitDx=0;exitDy=0;entryX=-0.002;entryY=0.965;entryDx=0;entryDy=0;entryPerimeter=0;" edge="1" parent="1" source="uBviDvtjFSzRHuxPpynN-64" target="uBviDvtjFSzRHuxPpynN-15">
          <mxGeometry relative="1" as="geometry" />
        </mxCell>
        <mxCell id="uBviDvtjFSzRHuxPpynN-49" style="edgeStyle=orthogonalEdgeStyle;rounded=0;orthogonalLoop=1;jettySize=auto;html=1;entryX=-0.002;entryY=0.384;entryDx=0;entryDy=0;entryPerimeter=0;" edge="1" parent="1" source="uBviDvtjFSzRHuxPpynN-8" target="uBviDvtjFSzRHuxPpynN-15">
          <mxGeometry relative="1" as="geometry" />
        </mxCell>
        <mxCell id="uBviDvtjFSzRHuxPpynN-50" style="edgeStyle=orthogonalEdgeStyle;rounded=0;orthogonalLoop=1;jettySize=auto;html=1;entryX=0;entryY=0.082;entryDx=0;entryDy=0;entryPerimeter=0;" edge="1" parent="1" source="uBviDvtjFSzRHuxPpynN-12" target="uBviDvtjFSzRHuxPpynN-15">
          <mxGeometry relative="1" as="geometry" />
        </mxCell>
        <mxCell id="uBviDvtjFSzRHuxPpynN-51" style="edgeStyle=orthogonalEdgeStyle;rounded=0;orthogonalLoop=1;jettySize=auto;html=1;entryX=0.907;entryY=-0.001;entryDx=0;entryDy=0;entryPerimeter=0;" edge="1" parent="1" source="uBviDvtjFSzRHuxPpynN-9" target="uBviDvtjFSzRHuxPpynN-15">
          <mxGeometry relative="1" as="geometry" />
        </mxCell>
        <mxCell id="uBviDvtjFSzRHuxPpynN-52" value="" style="endArrow=block;startArrow=block;endFill=1;startFill=1;html=1;rounded=0;" edge="1" parent="1">
          <mxGeometry width="160" relative="1" as="geometry">
            <mxPoint x="480" y="-445.5" as="sourcePoint" />
            <mxPoint x="640" y="-445.5" as="targetPoint" />
          </mxGeometry>
        </mxCell>
        <mxCell id="uBviDvtjFSzRHuxPpynN-53" value="1" style="text;html=1;align=center;verticalAlign=middle;resizable=0;points=[];autosize=1;strokeColor=none;fillColor=none;" vertex="1" parent="1">
          <mxGeometry x="475" y="-472" width="30" height="30" as="geometry" />
        </mxCell>
        <mxCell id="uBviDvtjFSzRHuxPpynN-54" value="1" style="text;html=1;align=center;verticalAlign=middle;resizable=0;points=[];autosize=1;strokeColor=none;fillColor=none;" vertex="1" parent="1">
          <mxGeometry x="605" y="-472" width="30" height="30" as="geometry" />
        </mxCell>
        <mxCell id="uBviDvtjFSzRHuxPpynN-55" value="1" style="text;html=1;align=center;verticalAlign=middle;resizable=0;points=[];autosize=1;strokeColor=none;fillColor=none;" vertex="1" parent="1">
          <mxGeometry x="605" y="-700" width="30" height="30" as="geometry" />
        </mxCell>
        <mxCell id="uBviDvtjFSzRHuxPpynN-56" value="1" style="text;html=1;align=center;verticalAlign=middle;resizable=0;points=[];autosize=1;strokeColor=none;fillColor=none;" vertex="1" parent="1">
          <mxGeometry x="520" y="-870" width="30" height="30" as="geometry" />
        </mxCell>
        <mxCell id="uBviDvtjFSzRHuxPpynN-57" value="1" style="text;html=1;align=center;verticalAlign=middle;resizable=0;points=[];autosize=1;strokeColor=none;fillColor=none;" vertex="1" parent="1">
          <mxGeometry x="635" y="-442" width="30" height="30" as="geometry" />
        </mxCell>
        <mxCell id="uBviDvtjFSzRHuxPpynN-59" value="1" style="text;html=1;align=center;verticalAlign=middle;resizable=0;points=[];autosize=1;strokeColor=none;fillColor=none;" vertex="1" parent="1">
          <mxGeometry x="645" y="-432" width="30" height="30" as="geometry" />
        </mxCell>
        <mxCell id="uBviDvtjFSzRHuxPpynN-60" value="1...n" style="text;whiteSpace=wrap;html=1;" vertex="1" parent="1">
          <mxGeometry x="1060" y="-760" width="60" height="40" as="geometry" />
        </mxCell>
        <mxCell id="uBviDvtjFSzRHuxPpynN-61" value="0...n" style="text;whiteSpace=wrap;html=1;" vertex="1" parent="1">
          <mxGeometry x="880" y="-760" width="60" height="40" as="geometry" />
        </mxCell>
        <mxCell id="uBviDvtjFSzRHuxPpynN-62" value="1" style="text;html=1;align=center;verticalAlign=middle;resizable=0;points=[];autosize=1;strokeColor=none;fillColor=none;" vertex="1" parent="1">
          <mxGeometry x="1150" y="-860" width="30" height="30" as="geometry" />
        </mxCell>
        <mxCell id="uBviDvtjFSzRHuxPpynN-63" style="edgeStyle=orthogonalEdgeStyle;rounded=0;orthogonalLoop=1;jettySize=auto;html=1;exitX=0;exitY=0.25;exitDx=0;exitDy=0;entryX=1;entryY=0.922;entryDx=0;entryDy=0;entryPerimeter=0;" edge="1" parent="1" source="uBviDvtjFSzRHuxPpynN-13" target="uBviDvtjFSzRHuxPpynN-15">
          <mxGeometry relative="1" as="geometry" />
        </mxCell>
        <mxCell id="uBviDvtjFSzRHuxPpynN-65" value="" style="edgeStyle=orthogonalEdgeStyle;rounded=0;orthogonalLoop=1;jettySize=auto;html=1;exitX=1;exitY=0.5;exitDx=0;exitDy=0;entryX=-0.002;entryY=0.965;entryDx=0;entryDy=0;entryPerimeter=0;" edge="1" parent="1" source="uBviDvtjFSzRHuxPpynN-10" target="uBviDvtjFSzRHuxPpynN-64">
          <mxGeometry relative="1" as="geometry">
            <mxPoint x="480" y="-15" as="sourcePoint" />
            <mxPoint x="639" y="-16" as="targetPoint" />
          </mxGeometry>
        </mxCell>
        <mxCell id="uBviDvtjFSzRHuxPpynN-64" value="&lt;pre&gt;&lt;code class=&quot;!whitespace-pre hljs language-plaintext&quot;&gt;0..*&lt;/code&gt;&lt;/pre&gt;" style="text;html=1;align=center;verticalAlign=middle;resizable=0;points=[];autosize=1;strokeColor=none;fillColor=none;" vertex="1" parent="1">
          <mxGeometry x="475" y="-60" width="50" height="50" as="geometry" />
        </mxCell>
        <mxCell id="uBviDvtjFSzRHuxPpynN-66" value="&lt;pre&gt;&lt;code class=&quot;!whitespace-pre hljs language-plaintext&quot;&gt;0..*&lt;/code&gt;&lt;/pre&gt;" style="text;whiteSpace=wrap;html=1;" vertex="1" parent="1">
          <mxGeometry x="605" y="-55" width="60" height="60" as="geometry" />
        </mxCell>
        <mxCell id="uBviDvtjFSzRHuxPpynN-67" value="&lt;pre&gt;&lt;code class=&quot;!whitespace-pre hljs language-plaintext&quot;&gt;0..*&lt;/code&gt;&lt;/pre&gt;" style="text;whiteSpace=wrap;html=1;" vertex="1" parent="1">
          <mxGeometry x="1100" y="-80" width="60" height="60" as="geometry" />
        </mxCell>
        <mxCell id="uBviDvtjFSzRHuxPpynN-68" value="&lt;pre&gt;&lt;code class=&quot;!whitespace-pre hljs language-plaintext&quot;&gt;0..*&lt;/code&gt;&lt;/pre&gt;" style="text;whiteSpace=wrap;html=1;" vertex="1" parent="1">
          <mxGeometry x="1135" y="10" width="60" height="60" as="geometry" />
        </mxCell>
      </root>
    </mxGraphModel>
  </diagram>
</mxfile>
